<svg width="37" height="37" viewBox="0 0 37 37" fill="none" xmlns="http://www.w3.org/2000/svg">
<path opacity="0.5" d="M19.001 18.4653C19.0646 18.4422 19.1321 18.4248 19.1995 18.4056C19.0286 18.0265 18.8493 17.6513 18.6619 17.2802C15.039 18.3535 11.5702 18.3632 10.9516 18.3535C10.9458 18.4017 10.9458 18.4518 10.9458 18.5C10.9458 20.3211 11.601 22.0709 12.792 23.4449C13.189 22.8051 15.2933 19.6659 19.001 18.4653ZM13.9193 24.499C14.9675 25.3023 16.2082 25.8162 17.5173 25.9893C18.8265 26.1625 20.1581 25.9888 21.3791 25.4857C21.0251 23.564 20.4948 21.6791 19.795 19.8547C15.7077 21.3001 14.1641 24.0211 13.9193 24.499ZM23.4237 12.7708C22.533 12.0057 21.4761 11.4587 20.3371 11.1734C19.1981 10.888 18.0082 10.8721 16.862 11.127C17.8677 12.4934 18.7825 13.9244 19.6004 15.4109C22.0728 14.4608 23.1905 13.0907 23.4237 12.7708ZM17.9315 15.9254C17.1009 14.4689 16.1906 13.0594 15.2047 11.7032C14.1868 12.1991 13.2929 12.9165 12.5883 13.8028C11.8837 14.6892 11.3864 15.7219 11.1328 16.8254H11.1655C11.9479 16.8254 14.7287 16.7618 17.9315 15.9254ZM21.4176 19.4558C22.3137 21.9476 22.7261 24.0172 22.8436 24.6802C24.486 23.5223 25.6013 21.7596 25.9443 19.7796C24.9464 19.4962 23.9138 19.3528 22.8764 19.3537C22.3792 19.3537 21.8878 19.3884 21.4176 19.4558ZM18.5 0C8.2826 0 0 8.2826 0 18.5C0 28.7174 8.2826 37 18.5 37C28.7174 37 37 28.7174 37 18.5C37 8.2826 28.7174 0 18.5 0ZM18.5 27.5515C16.0997 27.5495 13.7982 26.5953 12.1005 24.8984C10.4028 23.2014 9.4477 20.9003 9.44464 18.5C9.44668 16.099 10.4014 13.7969 12.0991 12.0991C13.7969 10.4014 16.099 9.44668 18.5 9.44464C20.9005 9.4477 23.2018 10.4028 24.899 12.1004C26.5963 13.798 27.5509 16.0995 27.5534 18.5C27.5509 20.9002 26.5962 23.2013 24.8988 24.8982C23.2015 26.5952 20.9002 27.5495 18.5 27.5515ZM20.2768 16.7155C20.4444 17.0624 20.6005 17.4035 20.7431 17.7388L20.8799 18.0664C21.4137 18.0028 21.9842 17.972 22.5796 17.972C23.7443 17.9743 24.9062 18.0853 26.0503 18.3034C26.0063 16.6621 25.4301 15.0795 24.4084 13.7941C24.1001 14.191 22.8321 15.6498 20.2768 16.7155Z" fill="white"/>
</svg>
