<svg width="36" height="35" viewBox="0 0 36 35" fill="none" xmlns="http://www.w3.org/2000/svg">
<path opacity="0.5" d="M22.4648 35C22.4648 34.9768 22.4707 34.9363 22.4824 34.8783C22.4941 34.8204 22.5 34.7683 22.5 34.7219C22.5 32.7524 22.2715 30.7713 21.8145 28.7785C21.3574 26.7858 20.7188 25.3145 19.8984 24.3644C22.9453 24.1096 25.2656 23.2233 26.8594 21.7056C28.4531 20.1879 29.25 18.2241 29.25 15.8143C29.25 13.7057 28.5 12.0837 27 10.9484V7.7855C27 7.53062 26.8711 7.28153 26.6133 7.03823C26.3555 6.79494 26.1094 6.67329 25.875 6.67329C25.5938 6.67329 24.1992 7.48428 21.6914 9.10626C20.5898 8.96723 19.3594 8.89772 18 8.89772C16.6641 8.89772 15.4336 8.96723 14.3086 9.10626C11.8008 7.48428 10.4062 6.67329 10.125 6.67329C9.89062 6.67329 9.64453 6.80073 9.38672 7.05561C9.12891 7.31049 9 7.55379 9 7.7855C9 7.99404 8.97656 8.50381 8.92969 9.3148C8.88281 10.1258 8.84766 10.7167 8.82422 11.0874C7.44141 12.1996 6.75 13.7752 6.75 15.8143C6.75 18.2241 7.54688 20.1879 9.14062 21.7056C10.7344 23.2233 13.0547 24.1096 16.1016 24.3644C15.9844 24.5266 15.8203 24.7584 15.6094 25.0596C14.6016 26.1486 13.1484 26.6931 11.25 26.6931C10.875 26.6931 10.5 26.5367 10.125 26.2239C9.75 25.9111 9.38086 25.5404 9.01758 25.1117C8.6543 24.6831 8.27344 24.2486 7.875 23.8083C7.47656 23.3681 6.98438 22.9974 6.39844 22.6961C5.8125 22.3949 5.17969 22.2443 4.5 22.2443C4.5 22.4297 4.61133 22.6614 4.83398 22.9394C5.05664 23.2175 5.36719 23.5998 5.76562 24.0864C6.16406 24.573 6.49219 25.0712 6.75 25.5809C7.35938 26.7395 7.99219 27.5852 8.64844 28.1182C9.30469 28.6511 10.1719 28.9176 11.25 28.9176C12.375 28.9176 13.3945 28.7554 14.3086 28.431C13.7695 30.47 13.5 32.567 13.5 34.7219V34.861L13.5352 35C9.59766 34.0036 6.35742 31.9124 3.81445 28.7264C1.27148 25.5404 0 21.8967 0 17.7954C0 15.3625 0.474609 13.0511 1.42383 10.8615C2.37305 8.6718 3.65039 6.78335 5.25586 5.19613C6.86133 3.6089 8.77734 2.34608 11.0039 1.40765C13.2305 0.469215 15.5625 0 18 0C20.4375 0 22.7695 0.469215 24.9961 1.40765C27.2227 2.34608 29.1387 3.6089 30.7441 5.19613C32.3496 6.78335 33.627 8.6718 34.5762 10.8615C35.5254 13.0511 36 15.3625 36 17.7954C36 21.8967 34.7285 25.5404 32.1855 28.7264C29.6426 31.9124 26.4023 34.0036 22.4648 35Z" fill="white"/>
</svg>
