<svg width="36" height="36" viewBox="0 0 36 36" fill="none" xmlns="http://www.w3.org/2000/svg">
<path opacity="0.5" d="M18 36C15.5625 36 13.2305 35.5254 11.0039 34.5762C8.77734 33.627 6.86133 32.3496 5.25586 30.7441C3.65039 29.1387 2.37305 27.2227 1.42383 24.9961C0.474609 22.7695 0 20.4375 0 18C0 15.5625 0.474609 13.2305 1.42383 11.0039C2.37305 8.77734 3.65039 6.86133 5.25586 5.25586C6.86133 3.65039 8.77734 2.37305 11.0039 1.42383C13.2305 0.474609 15.5625 0 18 0C20.4375 0 22.7695 0.474609 24.9961 1.42383C27.2227 2.37305 29.1387 3.65039 30.7441 5.25586C32.3496 6.86133 33.627 8.77734 34.5762 11.0039C35.5254 13.2305 36 15.5625 36 18C36 20.4375 35.5254 22.7695 34.5762 24.9961C33.627 27.2227 32.3496 29.1387 30.7441 30.7441C29.1387 32.3496 27.2227 33.627 24.9961 34.5762C22.7695 35.5254 20.4375 36 18 36ZM28.582 9C28.4414 9.07031 28.2305 9.19922 27.9492 9.38672L27.2637 9.84375L26.6133 10.1953L25.875 10.4414C25.0078 9.48047 23.9414 9 22.6758 9C19.9336 9 18.5625 10.1484 18.5625 12.4453V14.5195C14.7891 14.332 11.8945 12.9492 9.87891 10.3711C9.29297 10.9805 9 11.6484 9 12.375C9 13.9219 9.57422 15.0938 10.7227 15.8906C10.582 15.8906 10.3828 15.9023 10.125 15.9258C9.86719 15.9492 9.66211 15.9492 9.50977 15.9258C9.35742 15.9023 9.1875 15.8438 9 15.75C9 16.8281 9.28711 17.7246 9.86133 18.4395C10.4355 19.1543 11.2266 19.6172 12.2344 19.8281C12 20.1094 11.6719 20.25 11.25 20.25C10.875 20.25 10.5469 20.1445 10.2656 19.9336C10.2656 20.8477 10.7051 21.5566 11.584 22.0605C12.4629 22.5645 13.4531 22.8281 14.5547 22.8516C14.1328 23.4844 13.5176 23.959 12.709 24.2754C11.9004 24.5918 11.0391 24.75 10.125 24.75C9.79688 24.75 9.3457 24.668 8.77148 24.5039C8.19727 24.3398 7.89844 24.2578 7.875 24.2578C8.25 25.0078 9.01758 25.6523 10.1777 26.1914C11.3379 26.7305 12.8086 27 14.5898 27C16.1602 27 17.625 26.7246 18.9844 26.1738C20.3438 25.623 21.5039 24.8906 22.4648 23.9766C23.4258 23.0625 24.252 22.0195 24.9434 20.8477C25.6348 19.6758 26.1504 18.4629 26.4902 17.209C26.8301 15.9551 27 14.7188 27 13.5C27 13.4531 27.1406 13.3535 27.4219 13.2012C27.7031 13.0488 28.0312 12.8438 28.4062 12.5859C28.7812 12.3281 29.0625 12.0586 29.25 11.7773C27.9844 11.7773 27.1406 11.8008 26.7188 11.8477C27.5391 11.3555 28.1602 10.4062 28.582 9Z" fill="white"/>
</svg>
